<svg width="177" height="40" viewBox="0 0 177 40" fill="none" xmlns="http://www.w3.org/2000/svg">
<path d="M0 33.2166C7.34293 20.9654 16.3074 14.1204 25.1221 12.8688C14.5377 19.9357 11.5899 30.2764 13.9779 38.3922H32.1931C34.5122 38.3922 36.3922 36.5122 36.3922 34.1931V6.1991C36.3922 3.88 34.5122 2 32.1931 2L4.1991 2C1.88 2 0 3.88 0 6.1991V33.2166Z" fill="url(#paint0_linear_50_679)"/>
<path d="M59.6792 11.4143C64.8132 11.4143 67.8228 13.8928 68.1061 17.4335H73.1339C72.7798 11.6268 67.6458 7.62579 59.6792 7.62579C51.8897 7.55498 45.481 12.2287 45.5872 20.9034C45.481 29.5781 51.8897 34.2519 59.6792 34.181C67.6812 34.181 73.0631 30.1801 73.2047 23.8422H68.1415C67.9645 27.8432 64.9195 30.3925 59.6792 30.3925C54.4744 30.3925 50.3672 27.2059 50.3672 20.9034C50.3672 14.601 54.4744 11.4143 59.6792 11.4143Z" fill="white"/>
<path d="M97.3645 24.0192C97.3645 17.646 93.1511 13.8928 86.2113 13.8928C79.2715 13.8928 75.0581 17.646 75.0581 24.0192C75.0581 30.3925 79.2715 34.1456 86.2113 34.1456C93.1511 34.1456 97.3645 30.3925 97.3645 24.0192ZM92.9032 24.0192C92.9032 28.3035 90.4247 30.6049 86.2113 30.6049C81.9978 30.6049 79.5194 28.3035 79.5194 24.0192C79.5194 19.735 81.9978 17.4335 86.2113 17.4335C90.4247 17.4335 92.9032 19.735 92.9032 24.0192Z" fill="white"/>
<path d="M103.928 14.4948H99.7144V33.5437H104.034V22.8862C104.034 19.2039 106.902 17.5752 109.628 17.5752C112.886 17.5752 114.515 19.0268 114.515 21.8948V33.5437H118.834V22.8862C118.834 19.2039 121.702 17.5752 124.429 17.5752C127.686 17.5752 129.315 19.0268 129.315 21.8948V33.5437H133.634V20.6556C133.634 16.2297 130.448 14.0345 125.916 14.0345C122.623 14.0345 119.755 14.9904 118.091 17.0795C116.851 15.0613 114.302 14.0345 111.151 14.0345C108.177 14.0345 105.627 14.9904 104.069 17.0087H103.928V14.4948Z" fill="white"/>
<path d="M158.096 25.1169C158.132 24.692 158.167 24.3379 158.167 24.0192C158.167 17.6814 153.954 13.8928 147.262 13.8928C140.57 13.8928 136.357 17.6814 136.357 24.0192C136.357 30.3925 140.535 34.1456 147.474 34.1456C154.343 34.1456 157.459 30.9944 157.955 27.5599H153.175C152.856 29.2595 151.015 30.7466 147.474 30.7466C143.509 30.7466 141.101 28.8346 140.782 25.1169H158.096ZM140.959 21.824C141.632 18.8498 143.898 17.2919 147.262 17.2919C150.626 17.2919 152.892 18.8498 153.564 21.824H140.959Z" fill="white"/>
<path d="M171.93 29.8968C171.221 30.0384 169.805 30.1801 168.955 30.1801C167.362 30.1801 166.583 29.5781 166.583 28.0202V17.6106H172V14.4948H166.583V9.21911H162.263V14.4948H158.864V17.6106H162.263V28.693C162.263 32.4815 163.857 33.8624 168.53 33.8624C169.663 33.8624 171.115 33.7208 171.93 33.5437V29.8968Z" fill="white"/>
<defs>
<linearGradient id="paint0_linear_50_679" x1="47.4027" y1="-17.1152" x2="-27.7578" y2="19.7976" gradientUnits="userSpaceOnUse">
<stop stop-color="#E7F1FF"/>
<stop offset="0.248163" stop-color="#F05596"/>
<stop offset="0.612854" stop-color="#558DF9"/>
<stop offset="0.950458" stop-color="#31BCFF"/>
</linearGradient>
</defs>
</svg>
