<svg width="153" height="32" viewBox="0 0 153 32" fill="none" xmlns="http://www.w3.org/2000/svg">
<path d="M0 27.4491C6.4567 16.6764 14.3393 10.6576 22.0901 9.55705C12.7831 15.771 10.1911 24.8637 12.2909 32H28.3077C30.3469 32 32 30.3469 32 28.3077V3.69231C32 1.6531 30.3469 -8.91344e-08 28.3077 0L3.69231 1.07597e-06C1.6531 1.16511e-06 0 1.6531 0 3.69231V27.4491Z" fill="url(#paint0_linear_1026_77793)"/>
<path d="M56.1518 7.78183C60.5786 7.78183 63.1736 9.92836 63.4179 12.9948H67.753C67.4477 7.96581 63.021 4.50069 56.1518 4.50069C49.4354 4.43936 43.9095 8.48712 44.0011 16C43.9095 23.5129 49.4354 27.5606 56.1518 27.4993C63.0515 27.4993 67.692 24.0342 67.8141 18.5452H63.4484C63.2957 22.0103 60.6702 24.2182 56.1518 24.2182C51.664 24.2182 48.1226 21.4583 48.1226 16C48.1226 10.5417 51.664 7.78183 56.1518 7.78183Z" fill="currentColor"/>
<path d="M88.6457 18.6985C88.6457 13.1788 85.0127 9.92836 79.0289 9.92836C73.0452 9.92836 69.4122 13.1788 69.4122 18.6985C69.4122 24.2182 73.0452 27.4686 79.0289 27.4686C85.0127 27.4686 88.6457 24.2182 88.6457 18.6985ZM84.799 18.6985C84.799 22.409 82.6619 24.4022 79.0289 24.4022C75.3959 24.4022 73.2589 22.409 73.2589 18.6985C73.2589 14.9881 75.3959 12.9948 79.0289 12.9948C82.6619 12.9948 84.799 14.9881 84.799 18.6985Z" fill="currentColor"/>
<path d="M94.3049 10.4497H90.6719V26.9473H94.3965V17.7172C94.3965 14.5281 96.8694 13.1175 99.2202 13.1175C102.029 13.1175 103.433 14.3748 103.433 16.8586V26.9473H107.158V17.7172C107.158 14.5281 109.631 13.1175 111.981 13.1175C114.79 13.1175 116.195 14.3748 116.195 16.8586V26.9473H119.919V15.7853C119.919 11.9522 117.172 10.051 113.264 10.051C110.424 10.051 107.952 10.879 106.517 12.6882C105.448 10.9403 103.25 10.051 100.533 10.051C97.9685 10.051 95.7704 10.879 94.4271 12.6269H94.3049V10.4497Z" fill="currentColor"/>
<path d="M141.011 19.6491C141.042 19.2811 141.073 18.9745 141.073 18.6985C141.073 13.2095 137.44 9.92836 131.669 9.92836C125.899 9.92836 122.266 13.2095 122.266 18.6985C122.266 24.2182 125.869 27.4686 131.853 27.4686C137.775 27.4686 140.462 24.7395 140.889 21.765H136.768C136.493 23.2369 134.906 24.5248 131.853 24.5248C128.433 24.5248 126.357 22.8689 126.083 19.6491H141.011ZM126.235 16.7973C126.815 14.2214 128.769 12.8722 131.669 12.8722C134.57 12.8722 136.524 14.2214 137.104 16.7973H126.235Z" fill="currentColor"/>
<path d="M152.939 23.7889C152.328 23.9115 151.107 24.0342 150.374 24.0342C149.001 24.0342 148.329 23.5129 148.329 22.1636V13.1482H153V10.4497H148.329V5.8806H144.604V10.4497H141.674V13.1482H144.604V22.7463C144.604 26.0274 145.978 27.2233 150.008 27.2233C150.985 27.2233 152.237 27.1007 152.939 26.9473V23.7889Z" fill="currentColor"/>
<defs>
<linearGradient id="paint0_linear_1026_77793" x1="41.6817" y1="-16.8082" x2="-24.4077" y2="15.6496" gradientUnits="userSpaceOnUse">
<stop stop-color="#E7F1FF"/>
<stop offset="0.248163" stop-color="#F05596"/>
<stop offset="0.612854" stop-color="#558DF9"/>
<stop offset="0.950458" stop-color="#31BCFF"/>
</linearGradient>
</defs>
</svg>
